<mxfile host="app.diagrams.net" agent="Mozilla/5.0 (X11; Ubuntu; Linux x86_64; rv:129.0) Gecko/20100101 Firefox/129.0" version="26.0.11">
  <diagram name="PÃ¡gina-1" id="cXO6ZosCLriE8Fw_zkxO">
    <mxGraphModel dx="389" dy="192" grid="0" gridSize="10" guides="0" tooltips="1" connect="1" arrows="1" fold="1" page="1" pageScale="1" pageWidth="827" pageHeight="1169" math="0" shadow="0">
      <root>
        <mxCell id="0" />
        <mxCell id="1" parent="0" />
        <mxCell id="rNuUCdMT_7H_DOtV4EFp-32" value="" style="endArrow=none;html=1;rounded=0;strokeWidth=2;" parent="1" edge="1">
          <mxGeometry width="50" height="50" relative="1" as="geometry">
            <mxPoint x="70.10000000000002" y="202" as="sourcePoint" />
            <mxPoint x="70" y="160" as="targetPoint" />
          </mxGeometry>
        </mxCell>
        <mxCell id="rNuUCdMT_7H_DOtV4EFp-19" value="" style="verticalLabelPosition=bottom;html=1;verticalAlign=top;align=center;strokeColor=none;fillColor=#2072B8;shape=mxgraph.azure.cloud;" parent="1" vertex="1">
          <mxGeometry x="44" y="130" width="50" height="32.5" as="geometry" />
        </mxCell>
        <mxCell id="rNuUCdMT_7H_DOtV4EFp-34" value="&lt;font face=&quot;Lucida Console&quot;&gt;Red port&lt;/font&gt;" style="text;html=1;align=center;verticalAlign=middle;whiteSpace=wrap;rounded=0;" parent="1" vertex="1">
          <mxGeometry x="239" y="184" width="40" height="30" as="geometry" />
        </mxCell>
        <mxCell id="rNuUCdMT_7H_DOtV4EFp-35" value="&lt;font&gt;Black port&lt;/font&gt;" style="text;html=1;align=center;verticalAlign=middle;whiteSpace=wrap;rounded=0;spacing=2;spacingLeft=0;fontFamily=Lucida Console;fontStyle=0" parent="1" vertex="1">
          <mxGeometry x="106" y="183" width="48" height="30" as="geometry" />
        </mxCell>
        <mxCell id="rNuUCdMT_7H_DOtV4EFp-36" value="&lt;font&gt;Internet router&lt;/font&gt;" style="text;html=1;align=center;verticalAlign=middle;whiteSpace=wrap;rounded=0;spacing=2;spacingLeft=0;fontFamily=Lucida Console;fontStyle=0" parent="1" vertex="1">
          <mxGeometry x="28" y="246" width="88" height="30" as="geometry" />
        </mxCell>
        <mxCell id="rNuUCdMT_7H_DOtV4EFp-37" value="&lt;font&gt;Internet&lt;/font&gt;" style="text;html=1;align=center;verticalAlign=middle;whiteSpace=wrap;rounded=0;spacing=2;spacingLeft=0;fontFamily=Lucida Console;fontStyle=0" parent="1" vertex="1">
          <mxGeometry x="25" y="99.99999999999999" width="88" height="30" as="geometry" />
        </mxCell>
        <mxCell id="rNuUCdMT_7H_DOtV4EFp-42" value="&lt;font face=&quot;Lucida Console&quot;&gt;Local switch&lt;/font&gt;" style="text;html=1;align=center;verticalAlign=middle;whiteSpace=wrap;rounded=0;" parent="1" vertex="1">
          <mxGeometry x="297" y="248" width="60" height="30" as="geometry" />
        </mxCell>
        <mxCell id="rNuUCdMT_7H_DOtV4EFp-43" value="&lt;font face=&quot;Lucida Console&quot;&gt;Workstation on LAN&lt;/font&gt;" style="text;html=1;align=center;verticalAlign=middle;whiteSpace=wrap;rounded=0;" parent="1" vertex="1">
          <mxGeometry x="286" y="100" width="83.75" height="30" as="geometry" />
        </mxCell>
        <mxCell id="rNuUCdMT_7H_DOtV4EFp-51" value="" style="endArrow=none;html=1;rounded=0;strokeWidth=2;" parent="1" edge="1">
          <mxGeometry width="50" height="50" relative="1" as="geometry">
            <mxPoint x="326" y="220" as="sourcePoint" />
            <mxPoint x="326" y="150" as="targetPoint" />
          </mxGeometry>
        </mxCell>
        <mxCell id="rNuUCdMT_7H_DOtV4EFp-6" value="" style="shape=mxgraph.cisco.computers_and_peripherals.pc;html=1;pointerEvents=1;dashed=0;fillColor=#2072B8;strokeColor=#ffffff;strokeWidth=2;verticalLabelPosition=bottom;verticalAlign=top;align=center;outlineConnect=0;" parent="1" vertex="1">
          <mxGeometry x="300" y="130" width="58" height="50" as="geometry" />
        </mxCell>
        <mxCell id="aiWWjVIApAakwn2tHco_-10" value="" style="endArrow=none;html=1;rounded=0;strokeWidth=2;" parent="1" edge="1">
          <mxGeometry width="50" height="50" relative="1" as="geometry">
            <mxPoint x="75.10000000000002" y="591" as="sourcePoint" />
            <mxPoint x="75" y="549" as="targetPoint" />
          </mxGeometry>
        </mxCell>
        <mxCell id="aiWWjVIApAakwn2tHco_-13" value="" style="verticalLabelPosition=bottom;html=1;verticalAlign=top;align=center;strokeColor=none;fillColor=#2072B8;shape=mxgraph.azure.cloud;" parent="1" vertex="1">
          <mxGeometry x="49" y="523" width="50" height="32.5" as="geometry" />
        </mxCell>
        <mxCell id="aiWWjVIApAakwn2tHco_-19" value="&lt;font&gt;Internet router&lt;/font&gt;" style="text;html=1;align=center;verticalAlign=middle;whiteSpace=wrap;rounded=0;spacing=2;spacingLeft=0;fontFamily=Lucida Console;fontStyle=0" parent="1" vertex="1">
          <mxGeometry x="33" y="625" width="88" height="30" as="geometry" />
        </mxCell>
        <mxCell id="aiWWjVIApAakwn2tHco_-20" value="&lt;font&gt;Internet&lt;/font&gt;" style="text;html=1;align=center;verticalAlign=middle;whiteSpace=wrap;rounded=0;spacing=2;spacingLeft=0;fontFamily=Lucida Console;fontStyle=0" parent="1" vertex="1">
          <mxGeometry x="30" y="500" width="88" height="30" as="geometry" />
        </mxCell>
        <mxCell id="aiWWjVIApAakwn2tHco_-24" value="&lt;font face=&quot;Lucida Console&quot;&gt;Workstation on LAN&lt;/font&gt;" style="text;html=1;align=center;verticalAlign=middle;whiteSpace=wrap;rounded=0;" parent="1" vertex="1">
          <mxGeometry x="330" y="506" width="83.75" height="30" as="geometry" />
        </mxCell>
        <mxCell id="aiWWjVIApAakwn2tHco_-25" value="" style="endArrow=none;html=1;rounded=0;strokeWidth=2;" parent="1" edge="1">
          <mxGeometry width="50" height="50" relative="1" as="geometry">
            <mxPoint x="88" y="601" as="sourcePoint" />
            <mxPoint x="128" y="601" as="targetPoint" />
          </mxGeometry>
        </mxCell>
        <mxCell id="aiWWjVIApAakwn2tHco_-30" value="" style="sketch=0;points=[[0.5,0,0],[1,0.5,0],[0.5,1,0],[0,0.5,0],[0.145,0.145,0],[0.8555,0.145,0],[0.855,0.8555,0],[0.145,0.855,0]];verticalLabelPosition=bottom;html=1;verticalAlign=top;aspect=fixed;align=center;pointerEvents=1;shape=mxgraph.cisco19.rect;prIcon=router;fillColor=#FAFAFA;strokeColor=#2072B8;" parent="1" vertex="1">
          <mxGeometry x="55" y="582" width="40" height="40" as="geometry" />
        </mxCell>
        <mxCell id="aiWWjVIApAakwn2tHco_-39" value="" style="endArrow=none;html=1;rounded=0;strokeWidth=2;" parent="1" edge="1">
          <mxGeometry width="50" height="50" relative="1" as="geometry">
            <mxPoint x="150.99999999999997" y="601.25" as="sourcePoint" />
            <mxPoint x="400" y="601" as="targetPoint" />
          </mxGeometry>
        </mxCell>
        <mxCell id="aiWWjVIApAakwn2tHco_-38" value="" style="sketch=0;points=[[0.015,0.015,0],[0.985,0.015,0],[0.985,0.985,0],[0.015,0.985,0],[0.25,0,0],[0.5,0,0],[0.75,0,0],[1,0.25,0],[1,0.5,0],[1,0.75,0],[0.75,1,0],[0.5,1,0],[0.25,1,0],[0,0.75,0],[0,0.5,0],[0,0.25,0]];verticalLabelPosition=bottom;html=1;verticalAlign=top;aspect=fixed;align=center;pointerEvents=1;shape=mxgraph.cisco19.rect;prIcon=firewall;fillColor=#FAFAFA;strokeColor=#2072B8;shadow=0;" parent="1" vertex="1">
          <mxGeometry x="110" y="584" width="44.8" height="35" as="geometry" />
        </mxCell>
        <mxCell id="aiWWjVIApAakwn2tHco_-41" value="" style="endArrow=none;html=1;rounded=0;strokeWidth=2;" parent="1" edge="1">
          <mxGeometry width="50" height="50" relative="1" as="geometry">
            <mxPoint x="190" y="660" as="sourcePoint" />
            <mxPoint x="189.99999999999994" y="595" as="targetPoint" />
          </mxGeometry>
        </mxCell>
        <mxCell id="aiWWjVIApAakwn2tHco_-44" value="" style="endArrow=none;html=1;rounded=0;strokeWidth=2;" parent="1" edge="1">
          <mxGeometry width="50" height="50" relative="1" as="geometry">
            <mxPoint x="190" y="601" as="sourcePoint" />
            <mxPoint x="190" y="564" as="targetPoint" />
          </mxGeometry>
        </mxCell>
        <mxCell id="aiWWjVIApAakwn2tHco_-40" value="" style="sketch=0;points=[[0.5,0,0],[1,0.5,0],[0.5,1,0],[0,0.5,0],[0.145,0.145,0],[0.8555,0.145,0],[0.855,0.8555,0],[0.145,0.855,0]];verticalLabelPosition=bottom;html=1;verticalAlign=top;aspect=fixed;align=center;pointerEvents=1;shape=mxgraph.cisco19.rect;prIcon=router;fillColor=#FAFAFA;strokeColor=#2072B8;" parent="1" vertex="1">
          <mxGeometry x="170" y="581" width="40" height="40" as="geometry" />
        </mxCell>
        <mxCell id="aiWWjVIApAakwn2tHco_-23" value="&lt;font face=&quot;Lucida Console&quot;&gt;Local switch&lt;/font&gt;" style="text;html=1;align=center;verticalAlign=middle;whiteSpace=wrap;rounded=0;" parent="1" vertex="1">
          <mxGeometry x="248" y="507" width="60" height="30" as="geometry" />
        </mxCell>
        <mxCell id="aiWWjVIApAakwn2tHco_-36" value="" style="sketch=0;points=[[0.015,0.015,0],[0.985,0.015,0],[0.985,0.985,0],[0.015,0.985,0],[0.25,0,0],[0.5,0,0],[0.75,0,0],[1,0.25,0],[1,0.5,0],[1,0.75,0],[0.75,1,0],[0.5,1,0],[0.25,1,0],[0,0.75,0],[0,0.5,0],[0,0.25,0]];verticalLabelPosition=bottom;html=1;verticalAlign=top;aspect=fixed;align=center;pointerEvents=1;shape=mxgraph.cisco19.rect;prIcon=l3_switch;fillColor=#FAFAFA;strokeColor=#2072B8;" parent="1" vertex="1">
          <mxGeometry x="250" y="540" width="50" height="50" as="geometry" />
        </mxCell>
        <mxCell id="aiWWjVIApAakwn2tHco_-46" value="&lt;font face=&quot;Lucida Console&quot;&gt;Router&lt;/font&gt;" style="text;html=1;align=center;verticalAlign=middle;whiteSpace=wrap;rounded=0;" parent="1" vertex="1">
          <mxGeometry x="200" y="600" width="60" height="30" as="geometry" />
        </mxCell>
        <mxCell id="5iry1c7UJsEWw72Y43a--2" value="" style="rounded=0;whiteSpace=wrap;html=1;" vertex="1" parent="1">
          <mxGeometry x="151" y="192" width="90" height="60" as="geometry" />
        </mxCell>
        <mxCell id="5iry1c7UJsEWw72Y43a--3" value="" style="html=1;verticalLabelPosition=bottom;align=center;labelBackgroundColor=#ffffff;verticalAlign=top;strokeWidth=2;strokeColor=#0080F0;shadow=0;dashed=0;shape=mxgraph.ios7.icons.locked;" vertex="1" parent="1">
          <mxGeometry x="186" y="205" width="24" height="30" as="geometry" />
        </mxCell>
        <mxCell id="rNuUCdMT_7H_DOtV4EFp-48" value="" style="endArrow=oval;html=1;rounded=0;strokeWidth=2;endFill=1;entryX=0;entryY=0.5;entryDx=0;entryDy=0;exitX=1;exitY=0.5;exitDx=0;exitDy=0;exitPerimeter=0;" parent="1" edge="1" target="5iry1c7UJsEWw72Y43a--2" source="rNuUCdMT_7H_DOtV4EFp-20">
          <mxGeometry width="50" height="50" relative="1" as="geometry">
            <mxPoint x="79.99999999999997" y="220.25" as="sourcePoint" />
            <mxPoint x="160" y="220" as="targetPoint" />
          </mxGeometry>
        </mxCell>
        <mxCell id="rNuUCdMT_7H_DOtV4EFp-20" value="" style="sketch=0;points=[[0.5,0,0],[1,0.5,0],[0.5,1,0],[0,0.5,0],[0.145,0.145,0],[0.8555,0.145,0],[0.855,0.8555,0],[0.145,0.855,0]];verticalLabelPosition=bottom;html=1;verticalAlign=top;aspect=fixed;align=center;pointerEvents=1;shape=mxgraph.cisco19.rect;prIcon=router;fillColor=#FAFAFA;strokeColor=#2072B8;" parent="1" vertex="1">
          <mxGeometry x="50" y="202" width="40" height="40" as="geometry" />
        </mxCell>
        <mxCell id="rNuUCdMT_7H_DOtV4EFp-21" value="" style="endArrow=none;html=1;rounded=0;entryX=0;entryY=0.5;entryDx=0;entryDy=0;entryPerimeter=0;strokeWidth=2;startArrow=oval;startFill=1;exitX=1;exitY=0.5;exitDx=0;exitDy=0;" parent="1" edge="1" target="rNuUCdMT_7H_DOtV4EFp-13" source="5iry1c7UJsEWw72Y43a--2">
          <mxGeometry width="50" height="50" relative="1" as="geometry">
            <mxPoint x="250" y="220.25" as="sourcePoint" />
            <mxPoint x="317.9" y="219.99999999999977" as="targetPoint" />
          </mxGeometry>
        </mxCell>
        <mxCell id="rNuUCdMT_7H_DOtV4EFp-13" value="" style="sketch=0;points=[[0.015,0.015,0],[0.985,0.015,0],[0.985,0.985,0],[0.015,0.985,0],[0.25,0,0],[0.5,0,0],[0.75,0,0],[1,0.25,0],[1,0.5,0],[1,0.75,0],[0.75,1,0],[0.5,1,0],[0.25,1,0],[0,0.75,0],[0,0.5,0],[0,0.25,0]];verticalLabelPosition=bottom;html=1;verticalAlign=top;aspect=fixed;align=center;pointerEvents=1;shape=mxgraph.cisco19.rect;prIcon=l3_switch;fillColor=#FAFAFA;strokeColor=#2072B8;" parent="1" vertex="1">
          <mxGeometry x="301" y="197" width="50" height="50" as="geometry" />
        </mxCell>
        <mxCell id="5iry1c7UJsEWw72Y43a--4" value="&lt;font face=&quot;Lucida Console&quot;&gt;Red port&lt;/font&gt;" style="text;html=1;align=center;verticalAlign=middle;whiteSpace=wrap;rounded=0;" vertex="1" parent="1">
          <mxGeometry x="339" y="660" width="40" height="30" as="geometry" />
        </mxCell>
        <mxCell id="5iry1c7UJsEWw72Y43a--5" value="&lt;font&gt;Black port&lt;/font&gt;" style="text;html=1;align=center;verticalAlign=middle;whiteSpace=wrap;rounded=0;spacing=2;spacingLeft=0;fontFamily=Lucida Console;fontStyle=0" vertex="1" parent="1">
          <mxGeometry x="206" y="660" width="48" height="30" as="geometry" />
        </mxCell>
        <mxCell id="5iry1c7UJsEWw72Y43a--6" value="" style="rounded=0;whiteSpace=wrap;html=1;" vertex="1" parent="1">
          <mxGeometry x="251" y="629" width="90" height="60" as="geometry" />
        </mxCell>
        <mxCell id="5iry1c7UJsEWw72Y43a--7" value="" style="html=1;verticalLabelPosition=bottom;align=center;labelBackgroundColor=#ffffff;verticalAlign=top;strokeWidth=2;strokeColor=#0080F0;shadow=0;dashed=0;shape=mxgraph.ios7.icons.locked;" vertex="1" parent="1">
          <mxGeometry x="286" y="642" width="24" height="30" as="geometry" />
        </mxCell>
        <mxCell id="5iry1c7UJsEWw72Y43a--8" value="" style="endArrow=oval;html=1;rounded=0;strokeWidth=2;endFill=1;entryX=0;entryY=0.5;entryDx=0;entryDy=0;exitX=1;exitY=0.5;exitDx=0;exitDy=0;exitPerimeter=0;" edge="1" parent="1" target="5iry1c7UJsEWw72Y43a--6">
          <mxGeometry width="50" height="50" relative="1" as="geometry">
            <mxPoint x="190" y="659" as="sourcePoint" />
            <mxPoint x="260" y="657" as="targetPoint" />
          </mxGeometry>
        </mxCell>
        <mxCell id="5iry1c7UJsEWw72Y43a--9" value="" style="endArrow=none;html=1;rounded=0;entryX=0;entryY=0.5;entryDx=0;entryDy=0;entryPerimeter=0;strokeWidth=2;startArrow=oval;startFill=1;exitX=1;exitY=0.5;exitDx=0;exitDy=0;" edge="1" parent="1" source="5iry1c7UJsEWw72Y43a--6">
          <mxGeometry width="50" height="50" relative="1" as="geometry">
            <mxPoint x="350" y="657.25" as="sourcePoint" />
            <mxPoint x="401" y="659" as="targetPoint" />
          </mxGeometry>
        </mxCell>
        <mxCell id="5iry1c7UJsEWw72Y43a--10" value="" style="endArrow=none;html=1;rounded=0;strokeWidth=2;" edge="1" parent="1">
          <mxGeometry width="50" height="50" relative="1" as="geometry">
            <mxPoint x="400" y="660" as="sourcePoint" />
            <mxPoint x="399.99999999999994" y="600" as="targetPoint" />
          </mxGeometry>
        </mxCell>
        <mxCell id="5iry1c7UJsEWw72Y43a--11" value="" style="endArrow=none;html=1;rounded=0;strokeWidth=2;exitX=1;exitY=0.5;exitDx=0;exitDy=0;exitPerimeter=0;" edge="1" parent="1" source="aiWWjVIApAakwn2tHco_-36" target="aiWWjVIApAakwn2tHco_-35">
          <mxGeometry width="50" height="50" relative="1" as="geometry">
            <mxPoint x="300" y="569" as="sourcePoint" />
            <mxPoint x="520" y="569" as="targetPoint" />
          </mxGeometry>
        </mxCell>
        <mxCell id="aiWWjVIApAakwn2tHco_-35" value="" style="shape=mxgraph.cisco.computers_and_peripherals.pc;html=1;pointerEvents=1;dashed=0;fillColor=#2072B8;strokeColor=#ffffff;strokeWidth=2;verticalLabelPosition=bottom;verticalAlign=top;align=center;outlineConnect=0;" parent="1" vertex="1">
          <mxGeometry x="340" y="540" width="58" height="50" as="geometry" />
        </mxCell>
        <mxCell id="5iry1c7UJsEWw72Y43a--13" value="" style="endArrow=none;html=1;rounded=0;strokeWidth=2;entryX=0;entryY=0.5;entryDx=0;entryDy=0;entryPerimeter=0;" edge="1" parent="1" target="aiWWjVIApAakwn2tHco_-36">
          <mxGeometry width="50" height="50" relative="1" as="geometry">
            <mxPoint x="190" y="565" as="sourcePoint" />
            <mxPoint x="282" y="574" as="targetPoint" />
          </mxGeometry>
        </mxCell>
      </root>
    </mxGraphModel>
  </diagram>
</mxfile>
